<svg width="1128" height="872" viewBox="0 0 1128 872" fill="none" xmlns="http://www.w3.org/2000/svg">
<g filter="url(#filter0_bdii_1661_6696)">
<path fill-rule="evenodd" clip-rule="evenodd" d="M745.512 41.2016C726.114 38.5708 706.976 35.9753 688.616 32.8733C641.901 24.9808 597.63 29.1174 552.965 33.2909C521.554 36.226 489.947 39.1793 457.159 37.9793C420.403 36.6341 382.359 28.1627 344.706 19.7784C280.274 5.43093 216.986 -8.66154 163.257 13.6464C74.94 50.3148 27.5817 137.049 11.4418 223.037C-4.53718 308.168 14.0843 405.423 75.1251 483.185C107.227 524.081 140.742 536.077 177.542 549.25C205.979 559.428 236.377 570.309 269.6 595.769C313.352 629.298 340.809 668.135 366.219 704.074C388.281 735.28 408.8 764.302 437.1 785.769C487.5 824 587 885.5 869.072 851.347C981.1 837.783 1096.1 783.191 1119.1 685.269C1132.7 627.376 1091.89 566.493 1050.75 505.116C1022.2 462.512 993.487 419.67 982.698 377.424C973.549 341.603 981.379 304.599 989.062 268.291C999.801 217.535 1010.25 168.141 973.635 125.239C922.38 65.1885 831.391 52.8485 745.512 41.2016ZM743 432C743 530.859 662.859 611 564 611C465.141 611 385 530.859 385 432C385 333.141 465.141 253 564 253C662.859 253 743 333.141 743 432ZM1021 669C1021 694.957 957.424 716 879 716C800.576 716 737 694.957 737 669C737 643.043 800.576 622 879 622C957.424 622 1021 643.043 1021 669Z" fill="white" fill-opacity="0.1" shape-rendering="crispEdges"/>
</g>
<path d="M785.314 676V673.93H787.384V665.47H785.314V663.4H791.794V665.47H789.724V673.93H791.794V676H785.314ZM803.257 676.18C802.477 676.18 801.769 675.964 801.133 675.532C800.497 675.1 799.987 674.512 799.603 673.768C799.219 673.024 799.027 672.178 799.027 671.23C799.027 670.282 799.219 669.436 799.603 668.692C799.987 667.948 800.509 667.366 801.169 666.946C801.829 666.526 802.573 666.316 803.401 666.316C803.881 666.316 804.319 666.388 804.715 666.532C805.111 666.664 805.459 666.856 805.759 667.108C806.059 667.36 806.305 667.648 806.497 667.972C806.701 668.296 806.839 668.644 806.911 669.016L806.425 668.89V666.514H808.657V676H806.407V673.732L806.929 673.642C806.845 673.966 806.689 674.284 806.461 674.596C806.245 674.896 805.969 675.166 805.633 675.406C805.309 675.634 804.943 675.82 804.535 675.964C804.139 676.108 803.713 676.18 803.257 676.18ZM803.869 674.218C804.385 674.218 804.841 674.092 805.237 673.84C805.633 673.588 805.939 673.24 806.155 672.796C806.383 672.34 806.497 671.818 806.497 671.23C806.497 670.654 806.383 670.144 806.155 669.7C805.939 669.256 805.633 668.908 805.237 668.656C804.841 668.404 804.385 668.278 803.869 668.278C803.353 668.278 802.897 668.404 802.501 668.656C802.117 668.908 801.817 669.256 801.601 669.7C801.385 670.144 801.277 670.654 801.277 671.23C801.277 671.818 801.385 672.34 801.601 672.796C801.817 673.24 802.117 673.588 802.501 673.84C802.897 674.092 803.353 674.218 803.869 674.218ZM811.188 676V666.514H813.366L813.402 668.422L813.042 668.566C813.15 668.254 813.312 667.966 813.528 667.702C813.744 667.426 814.002 667.192 814.302 667C814.602 666.796 814.92 666.64 815.256 666.532C815.592 666.412 815.934 666.352 816.282 666.352C816.798 666.352 817.254 666.436 817.65 666.604C818.058 666.76 818.394 667.012 818.658 667.36C818.934 667.708 819.138 668.152 819.27 668.692L818.928 668.62L819.072 668.332C819.204 668.044 819.39 667.786 819.63 667.558C819.87 667.318 820.14 667.108 820.44 666.928C820.74 666.736 821.052 666.592 821.376 666.496C821.712 666.4 822.042 666.352 822.366 666.352C823.086 666.352 823.686 666.496 824.166 666.784C824.646 667.072 825.006 667.51 825.246 668.098C825.486 668.686 825.606 669.412 825.606 670.276V676H823.374V670.42C823.374 669.94 823.308 669.544 823.176 669.232C823.056 668.92 822.864 668.692 822.6 668.548C822.348 668.392 822.03 668.314 821.646 668.314C821.346 668.314 821.058 668.368 820.782 668.476C820.518 668.572 820.29 668.716 820.098 668.908C819.906 669.088 819.756 669.298 819.648 669.538C819.54 669.778 819.486 670.042 819.486 670.33V676H817.254V670.402C817.254 669.946 817.188 669.568 817.056 669.268C816.924 668.956 816.732 668.722 816.48 668.566C816.228 668.398 815.922 668.314 815.562 668.314C815.262 668.314 814.98 668.368 814.716 668.476C814.452 668.572 814.224 668.71 814.032 668.89C813.84 669.07 813.69 669.28 813.582 669.52C813.474 669.76 813.42 670.024 813.42 670.312V676H811.188ZM836.937 676.18C836.157 676.18 835.449 675.964 834.813 675.532C834.177 675.1 833.667 674.512 833.283 673.768C832.899 673.024 832.707 672.178 832.707 671.23C832.707 670.282 832.899 669.436 833.283 668.692C833.667 667.948 834.189 667.366 834.849 666.946C835.509 666.526 836.253 666.316 837.081 666.316C837.561 666.316 837.999 666.388 838.395 666.532C838.791 666.664 839.139 666.856 839.439 667.108C839.739 667.36 839.985 667.648 840.177 667.972C840.381 668.296 840.519 668.644 840.591 669.016L840.105 668.89V666.514H842.337V676H840.087V673.732L840.609 673.642C840.525 673.966 840.369 674.284 840.141 674.596C839.925 674.896 839.649 675.166 839.313 675.406C838.989 675.634 838.623 675.82 838.215 675.964C837.819 676.108 837.393 676.18 836.937 676.18ZM837.549 674.218C838.065 674.218 838.521 674.092 838.917 673.84C839.313 673.588 839.619 673.24 839.835 672.796C840.063 672.34 840.177 671.818 840.177 671.23C840.177 670.654 840.063 670.144 839.835 669.7C839.619 669.256 839.313 668.908 838.917 668.656C838.521 668.404 838.065 668.278 837.549 668.278C837.033 668.278 836.577 668.404 836.181 668.656C835.797 668.908 835.497 669.256 835.281 669.7C835.065 670.144 834.957 670.654 834.957 671.23C834.957 671.818 835.065 672.34 835.281 672.796C835.497 673.24 835.797 673.588 836.181 673.84C836.577 674.092 837.033 674.218 837.549 674.218ZM855.63 676.108C854.634 676.108 853.746 675.898 852.966 675.478C852.186 675.046 851.568 674.458 851.112 673.714C850.668 672.958 850.446 672.106 850.446 671.158V663.382H852.804V670.996C852.804 671.56 852.93 672.064 853.182 672.508C853.446 672.94 853.794 673.288 854.226 673.552C854.658 673.816 855.126 673.948 855.63 673.948C856.182 673.948 856.68 673.816 857.124 673.552C857.568 673.288 857.916 672.94 858.168 672.508C858.432 672.064 858.564 671.56 858.564 670.996V663.382H860.832V671.158C860.832 672.106 860.604 672.958 860.148 673.714C859.704 674.458 859.092 675.046 858.312 675.478C857.532 675.898 856.638 676.108 855.63 676.108ZM863.695 676V673.93H865.765V665.47H863.695V663.4H870.175V665.47H868.105V673.93H870.175V676H863.695ZM878.201 676.108C877.205 676.108 876.317 675.898 875.537 675.478C874.757 675.046 874.139 674.458 873.683 673.714C873.239 672.958 873.017 672.106 873.017 671.158V663.382H875.375V670.996C875.375 671.56 875.501 672.064 875.753 672.508C876.017 672.94 876.365 673.288 876.797 673.552C877.229 673.816 877.697 673.948 878.201 673.948C878.753 673.948 879.251 673.816 879.695 673.552C880.139 673.288 880.487 672.94 880.739 672.508C881.003 672.064 881.135 671.56 881.135 670.996V663.382H883.403V671.158C883.403 672.106 883.175 672.958 882.719 673.714C882.275 674.458 881.663 675.046 880.883 675.478C880.103 675.898 879.209 676.108 878.201 676.108ZM894.045 676L890.139 670.348L885.135 663.4H888.051L891.867 668.98L896.961 676H894.045ZM885.045 676L889.851 669.142L891.507 670.564L887.781 676H885.045ZM892.155 670.15L890.517 668.782L894.045 663.4H896.781L892.155 670.15ZM904.221 676V663.4H909.279C910.191 663.4 911.013 663.55 911.745 663.85C912.489 664.15 913.125 664.582 913.653 665.146C914.193 665.71 914.601 666.376 914.877 667.144C915.165 667.912 915.309 668.764 915.309 669.7C915.309 670.636 915.165 671.494 914.877 672.274C914.601 673.042 914.199 673.708 913.671 674.272C913.143 674.824 912.507 675.25 911.763 675.55C911.019 675.85 910.191 676 909.279 676H904.221ZM906.561 674.182L906.381 673.84H909.189C909.777 673.84 910.299 673.744 910.755 673.552C911.223 673.36 911.619 673.084 911.943 672.724C912.267 672.364 912.513 671.932 912.681 671.428C912.849 670.912 912.933 670.336 912.933 669.7C912.933 669.064 912.849 668.494 912.681 667.99C912.513 667.474 912.261 667.036 911.925 666.676C911.601 666.316 911.211 666.04 910.755 665.848C910.299 665.656 909.777 665.56 909.189 665.56H906.327L906.561 665.254V674.182ZM921.894 676.18C920.898 676.18 920.016 675.97 919.248 675.55C918.492 675.13 917.898 674.56 917.466 673.84C917.046 673.108 916.836 672.274 916.836 671.338C916.836 670.594 916.956 669.916 917.196 669.304C917.436 668.692 917.766 668.164 918.186 667.72C918.618 667.264 919.128 666.916 919.716 666.676C920.316 666.424 920.97 666.298 921.678 666.298C922.302 666.298 922.884 666.418 923.424 666.658C923.964 666.898 924.432 667.228 924.828 667.648C925.224 668.056 925.524 668.548 925.728 669.124C925.944 669.688 926.046 670.306 926.034 670.978L926.016 671.752H918.33L917.916 670.24H924.162L923.874 670.546V670.15C923.838 669.778 923.718 669.454 923.514 669.178C923.31 668.89 923.046 668.668 922.722 668.512C922.41 668.344 922.062 668.26 921.678 668.26C921.09 668.26 920.592 668.374 920.184 668.602C919.788 668.83 919.488 669.16 919.284 669.592C919.08 670.012 918.978 670.54 918.978 671.176C918.978 671.788 919.104 672.322 919.356 672.778C919.62 673.234 919.986 673.588 920.454 673.84C920.934 674.08 921.492 674.2 922.128 674.2C922.572 674.2 922.98 674.128 923.352 673.984C923.724 673.84 924.126 673.582 924.558 673.21L925.656 674.74C925.332 675.04 924.96 675.298 924.54 675.514C924.132 675.718 923.7 675.88 923.244 676C922.788 676.12 922.338 676.18 921.894 676.18ZM931.163 676.18C930.323 676.18 929.567 676.042 928.895 675.766C928.235 675.478 927.695 675.07 927.275 674.542L928.715 673.3C929.075 673.708 929.477 674.002 929.921 674.182C930.365 674.362 930.833 674.452 931.325 674.452C931.529 674.452 931.709 674.428 931.865 674.38C932.033 674.332 932.177 674.26 932.297 674.164C932.417 674.068 932.507 673.96 932.567 673.84C932.639 673.708 932.675 673.564 932.675 673.408C932.675 673.12 932.567 672.892 932.351 672.724C932.231 672.64 932.039 672.55 931.775 672.454C931.523 672.358 931.193 672.262 930.785 672.166C930.137 671.998 929.597 671.806 929.165 671.59C928.733 671.362 928.397 671.11 928.157 670.834C927.953 670.606 927.797 670.348 927.689 670.06C927.593 669.772 927.545 669.46 927.545 669.124C927.545 668.704 927.635 668.326 927.815 667.99C928.007 667.642 928.265 667.342 928.589 667.09C928.913 666.838 929.291 666.646 929.723 666.514C930.155 666.382 930.605 666.316 931.073 666.316C931.553 666.316 932.015 666.376 932.459 666.496C932.915 666.616 933.335 666.79 933.719 667.018C934.115 667.234 934.451 667.498 934.727 667.81L933.503 669.16C933.275 668.944 933.023 668.752 932.747 668.584C932.483 668.416 932.213 668.284 931.937 668.188C931.661 668.08 931.403 668.026 931.163 668.026C930.935 668.026 930.731 668.05 930.551 668.098C930.371 668.134 930.221 668.194 930.101 668.278C929.981 668.362 929.885 668.47 929.813 668.602C929.753 668.722 929.723 668.866 929.723 669.034C929.735 669.178 929.771 669.316 929.831 669.448C929.903 669.568 929.999 669.67 930.119 669.754C930.251 669.838 930.449 669.934 930.713 670.042C930.977 670.15 931.319 670.252 931.739 670.348C932.327 670.504 932.819 670.678 933.215 670.87C933.611 671.062 933.923 671.284 934.151 671.536C934.379 671.752 934.541 672.004 934.637 672.292C934.733 672.58 934.781 672.898 934.781 673.246C934.781 673.81 934.619 674.314 934.295 674.758C933.983 675.202 933.551 675.55 932.999 675.802C932.459 676.054 931.847 676.18 931.163 676.18ZM936.984 676V666.514H939.198V676H936.984ZM938.064 664.498C937.62 664.498 937.272 664.39 937.02 664.174C936.78 663.946 936.66 663.628 936.66 663.22C936.66 662.836 936.786 662.524 937.038 662.284C937.29 662.044 937.632 661.924 938.064 661.924C938.52 661.924 938.868 662.038 939.108 662.266C939.36 662.482 939.486 662.8 939.486 663.22C939.486 663.592 939.36 663.898 939.108 664.138C938.856 664.378 938.508 664.498 938.064 664.498ZM946.271 680.14C945.563 680.14 944.855 680.032 944.147 679.816C943.451 679.6 942.887 679.318 942.455 678.97L943.247 677.332C943.499 677.512 943.781 677.668 944.093 677.8C944.405 677.932 944.735 678.034 945.083 678.106C945.443 678.178 945.797 678.214 946.145 678.214C946.781 678.214 947.309 678.112 947.729 677.908C948.161 677.716 948.485 677.416 948.701 677.008C948.917 676.612 949.025 676.114 949.025 675.514V673.768L949.349 673.894C949.277 674.266 949.079 674.62 948.755 674.956C948.431 675.292 948.023 675.568 947.531 675.784C947.039 675.988 946.535 676.09 946.019 676.09C945.119 676.09 944.321 675.88 943.625 675.46C942.941 675.04 942.395 674.47 941.987 673.75C941.591 673.018 941.393 672.178 941.393 671.23C941.393 670.282 941.591 669.442 941.987 668.71C942.383 667.966 942.923 667.384 943.607 666.964C944.303 666.532 945.083 666.316 945.947 666.316C946.307 666.316 946.655 666.358 946.991 666.442C947.327 666.526 947.633 666.646 947.909 666.802C948.197 666.958 948.455 667.132 948.683 667.324C948.911 667.516 949.097 667.72 949.241 667.936C949.385 668.152 949.475 668.362 949.511 668.566L949.043 668.71L949.079 666.514H951.257V675.352C951.257 676.12 951.143 676.798 950.915 677.386C950.687 677.974 950.357 678.472 949.925 678.88C949.493 679.3 948.971 679.612 948.359 679.816C947.747 680.032 947.051 680.14 946.271 680.14ZM946.361 674.2C946.901 674.2 947.375 674.074 947.783 673.822C948.203 673.57 948.527 673.222 948.755 672.778C948.983 672.334 949.097 671.824 949.097 671.248C949.097 670.66 948.977 670.144 948.737 669.7C948.509 669.244 948.191 668.89 947.783 668.638C947.375 668.386 946.901 668.26 946.361 668.26C945.821 668.26 945.347 668.392 944.939 668.656C944.531 668.908 944.207 669.262 943.967 669.718C943.739 670.162 943.625 670.672 943.625 671.248C943.625 671.812 943.739 672.322 943.967 672.778C944.207 673.222 944.531 673.57 944.939 673.822C945.347 674.074 945.821 674.2 946.361 674.2ZM953.817 676V666.514H955.977L956.013 668.458L955.599 668.674C955.719 668.242 955.953 667.852 956.301 667.504C956.649 667.144 957.063 666.856 957.543 666.64C958.023 666.424 958.515 666.316 959.019 666.316C959.739 666.316 960.339 666.46 960.819 666.748C961.311 667.036 961.677 667.468 961.917 668.044C962.169 668.62 962.295 669.34 962.295 670.204V676H960.081V670.366C960.081 669.886 960.015 669.49 959.883 669.178C959.751 668.854 959.547 668.62 959.271 668.476C958.995 668.32 958.659 668.248 958.263 668.26C957.939 668.26 957.639 668.314 957.363 668.422C957.099 668.518 956.865 668.662 956.661 668.854C956.469 669.034 956.313 669.244 956.193 669.484C956.085 669.724 956.031 669.988 956.031 670.276V676H954.933C954.717 676 954.513 676 954.321 676C954.141 676 953.973 676 953.817 676ZM969.232 676.18C968.236 676.18 967.354 675.97 966.586 675.55C965.83 675.13 965.236 674.56 964.804 673.84C964.384 673.108 964.174 672.274 964.174 671.338C964.174 670.594 964.294 669.916 964.534 669.304C964.774 668.692 965.104 668.164 965.524 667.72C965.956 667.264 966.466 666.916 967.054 666.676C967.654 666.424 968.308 666.298 969.016 666.298C969.64 666.298 970.222 666.418 970.762 666.658C971.302 666.898 971.77 667.228 972.166 667.648C972.562 668.056 972.862 668.548 973.066 669.124C973.282 669.688 973.384 670.306 973.372 670.978L973.354 671.752H965.668L965.254 670.24H971.5L971.212 670.546V670.15C971.176 669.778 971.056 669.454 970.852 669.178C970.648 668.89 970.384 668.668 970.06 668.512C969.748 668.344 969.4 668.26 969.016 668.26C968.428 668.26 967.93 668.374 967.522 668.602C967.126 668.83 966.826 669.16 966.622 669.592C966.418 670.012 966.316 670.54 966.316 671.176C966.316 671.788 966.442 672.322 966.694 672.778C966.958 673.234 967.324 673.588 967.792 673.84C968.272 674.08 968.83 674.2 969.466 674.2C969.91 674.2 970.318 674.128 970.69 673.984C971.062 673.84 971.464 673.582 971.896 673.21L972.994 674.74C972.67 675.04 972.298 675.298 971.878 675.514C971.47 675.718 971.038 675.88 970.582 676C970.126 676.12 969.676 676.18 969.232 676.18ZM975.333 676V666.514H977.511L977.547 669.538L977.241 668.854C977.373 668.374 977.601 667.942 977.925 667.558C978.249 667.174 978.621 666.874 979.041 666.658C979.473 666.43 979.923 666.316 980.391 666.316C980.595 666.316 980.787 666.334 980.967 666.37C981.159 666.406 981.315 666.448 981.435 666.496L980.841 668.926C980.709 668.854 980.547 668.794 980.355 668.746C980.163 668.698 979.971 668.674 979.779 668.674C979.479 668.674 979.191 668.734 978.915 668.854C978.651 668.962 978.417 669.118 978.213 669.322C978.009 669.526 977.847 669.766 977.727 670.042C977.619 670.306 977.565 670.606 977.565 670.942V676H975.333Z" fill="#666666"/>
<defs>
<filter id="filter0_bdii_1661_6696" x="-54.4667" y="-58.4667" width="1236.7" height="980.25" filterUnits="userSpaceOnUse" color-interpolation-filters="sRGB">
<feFlood flood-opacity="0" result="BackgroundImageFix"/>
<feGaussianBlur in="BackgroundImage" stdDeviation="30.2333"/>
<feComposite in2="SourceAlpha" operator="in" result="effect1_backgroundBlur_1661_6696"/>
<feColorMatrix in="SourceAlpha" type="matrix" values="0 0 0 0 0 0 0 0 0 0 0 0 0 0 0 0 0 0 127 0" result="hardAlpha"/>
<feOffset dy="4"/>
<feGaussianBlur stdDeviation="3"/>
<feComposite in2="hardAlpha" operator="out"/>
<feColorMatrix type="matrix" values="0 0 0 0 0 0 0 0 0 0 0 0 0 0 0 0 0 0 0.15 0"/>
<feBlend mode="normal" in2="effect1_backgroundBlur_1661_6696" result="effect2_dropShadow_1661_6696"/>
<feBlend mode="normal" in="SourceGraphic" in2="effect2_dropShadow_1661_6696" result="shape"/>
<feColorMatrix in="SourceAlpha" type="matrix" values="0 0 0 0 0 0 0 0 0 0 0 0 0 0 0 0 0 0 127 0" result="hardAlpha"/>
<feOffset dx="-6.04667" dy="6.04667"/>
<feGaussianBlur stdDeviation="3.02333"/>
<feComposite in2="hardAlpha" operator="arithmetic" k2="-1" k3="1"/>
<feColorMatrix type="matrix" values="0 0 0 0 1 0 0 0 0 1 0 0 0 0 1 0 0 0 0.4 0"/>
<feBlend mode="normal" in2="shape" result="effect3_innerShadow_1661_6696"/>
<feColorMatrix in="SourceAlpha" type="matrix" values="0 0 0 0 0 0 0 0 0 0 0 0 0 0 0 0 0 0 127 0" result="hardAlpha"/>
<feOffset dx="6.04667" dy="-6.04667"/>
<feGaussianBlur stdDeviation="3.02333"/>
<feComposite in2="hardAlpha" operator="arithmetic" k2="-1" k3="1"/>
<feColorMatrix type="matrix" values="0 0 0 0 0.84 0 0 0 0 0.84 0 0 0 0 0.84 0 0 0 0.4 0"/>
<feBlend mode="normal" in2="effect3_innerShadow_1661_6696" result="effect4_innerShadow_1661_6696"/>
</filter>
</defs>
</svg>
